<svg width="26" height="21" viewBox="0 0 26 21" fill="none" xmlns="http://www.w3.org/2000/svg">
<path d="M13.1357 8.20786C13.2261 7.74854 13.2715 7.28149 13.2715 6.81333C13.271 5.54879 12.9321 4.30757 12.2901 3.21917C11.6481 2.13078 10.7266 1.2351 9.62176 0.625601C9.52195 0.572813 9.40825 0.552401 9.29637 0.567183C9.18449 0.581965 9.07995 0.631211 8.99717 0.708123C8.91595 0.786802 8.86187 0.8894 8.84277 1.00101C8.82368 1.11262 8.84057 1.22743 8.89099 1.32876C9.30116 2.16134 9.51487 3.07737 9.51558 4.00601C9.51558 7.36285 6.78512 10.099 3.43955 10.099C2.51343 10.099 1.59981 9.88464 0.769775 9.47271C0.66884 9.42167 0.554233 9.40446 0.442818 9.42363C0.331404 9.4428 0.229068 9.49733 0.150872 9.57919C0.0731103 9.66159 0.0232857 9.76651 0.00850791 9.87899C-0.00626993 9.99146 0.0147534 10.1057 0.0685785 10.2055C0.634938 11.2404 1.45141 12.116 2.44306 12.7521C3.43471 13.3882 4.56979 13.7644 5.74414 13.8461C6.20133 12.9673 6.87958 12.2236 7.71167 11.6887C8.54375 11.1538 9.50079 10.8463 10.4879 10.7965C11.1014 9.69432 12.0214 8.7949 13.1357 8.20786Z" fill="url(#paint0_linear_1_2)"/>
<path d="M16.0212 5.26526C16.0533 5.2927 16.0773 5.32857 16.0903 5.36887C16.1032 5.40917 16.1048 5.4523 16.0947 5.49343L15.8793 6.40765C15.8683 6.45179 15.8706 6.49824 15.8861 6.54103C15.9015 6.58382 15.9294 6.62099 15.9661 6.64777C16.0028 6.67455 16.0467 6.68971 16.092 6.69131C16.1374 6.69291 16.1822 6.68087 16.2206 6.65674L17.022 6.16731C17.0578 6.14525 17.099 6.13357 17.141 6.13357C17.1831 6.13357 17.2243 6.14525 17.2601 6.16731L18.0614 6.65674C18.0999 6.68087 18.1447 6.69291 18.1901 6.69131C18.2354 6.68971 18.2793 6.67455 18.3159 6.64777C18.3526 6.62099 18.3805 6.58382 18.396 6.54103C18.4114 6.49824 18.4138 6.45179 18.4027 6.40765L18.1862 5.49229C18.1761 5.45116 18.1777 5.40803 18.1907 5.36773C18.2037 5.32743 18.2276 5.29156 18.2598 5.26412L18.9716 4.65147C19.0066 4.62229 19.032 4.58327 19.0447 4.53945C19.0573 4.49562 19.0566 4.449 19.0425 4.4056C19.0285 4.36221 19.0018 4.32403 18.9659 4.296C18.93 4.26797 18.8865 4.25137 18.8411 4.24836L17.9056 4.1723C17.8637 4.16903 17.8235 4.15419 17.7895 4.12942C17.7555 4.10465 17.729 4.07092 17.7129 4.03197L17.3515 3.16339C17.3345 3.12118 17.3054 3.08503 17.2678 3.05957C17.2302 3.03411 17.1858 3.02051 17.1405 3.02051C17.0951 3.02051 17.0508 3.03411 17.0131 3.05957C16.9755 3.08503 16.9464 3.12118 16.9294 3.16339L16.568 4.03197C16.552 4.07092 16.5255 4.10465 16.4915 4.12942C16.4575 4.15419 16.4173 4.16903 16.3754 4.1723L15.4402 4.24836C15.3947 4.25135 15.3511 4.26799 15.3151 4.29612C15.2792 4.32425 15.2525 4.36256 15.2385 4.4061C15.2245 4.44964 15.2239 4.49638 15.2367 4.54027C15.2496 4.58416 15.2753 4.62316 15.3105 4.65223L16.0212 5.26526Z" fill="url(#paint1_linear_1_2)"/>
<path d="M21.0434 3.49642C21.0756 3.52386 21.0995 3.55973 21.1125 3.60003C21.1255 3.64033 21.1271 3.68346 21.117 3.72459L20.9005 4.64033C20.8895 4.68445 20.8919 4.73083 20.9074 4.77355C20.9229 4.81627 20.9508 4.85337 20.9875 4.88009C21.0242 4.90682 21.068 4.92195 21.1133 4.92354C21.1586 4.92514 21.2033 4.91312 21.2418 4.88904L22.0431 4.39961C22.0789 4.37755 22.1201 4.36587 22.1622 4.36587C22.2042 4.36587 22.2454 4.37755 22.2812 4.39961L23.0848 4.88904C23.1233 4.91312 23.168 4.92514 23.2133 4.92354C23.2586 4.92195 23.3024 4.90682 23.3391 4.88009C23.3758 4.85337 23.4037 4.81627 23.4192 4.77355C23.4347 4.73083 23.4371 4.68445 23.4261 4.64033L23.2096 3.72459C23.1995 3.68346 23.2011 3.64033 23.2141 3.60003C23.2271 3.55973 23.251 3.52386 23.2832 3.49642L23.995 2.88339C24.03 2.85421 24.0554 2.81519 24.0681 2.77137C24.0807 2.72754 24.08 2.68092 24.0659 2.63752C24.0519 2.59412 24.0252 2.55594 23.9893 2.52792C23.9534 2.49989 23.9099 2.48329 23.8645 2.48028L22.9294 2.40422C22.8874 2.40095 22.8473 2.38611 22.8133 2.36134C22.7793 2.33657 22.7528 2.30284 22.7367 2.26389L22.3753 1.3953C22.3584 1.35298 22.3292 1.31671 22.2916 1.29116C22.2539 1.26561 22.2095 1.25195 22.1641 1.25195C22.1186 1.25195 22.0742 1.26561 22.0365 1.29116C21.9989 1.31671 21.9697 1.35298 21.9528 1.3953L21.5899 2.26503C21.5739 2.30398 21.5474 2.33771 21.5134 2.36248C21.4793 2.38725 21.4392 2.40209 21.3973 2.40536L20.4621 2.48142C20.4168 2.48451 20.3734 2.50113 20.3376 2.52914C20.3018 2.55715 20.2752 2.59526 20.2611 2.63857C20.2471 2.68189 20.2463 2.72842 20.2589 2.77218C20.2714 2.81595 20.2968 2.85494 20.3316 2.88415L21.0434 3.49642Z" fill="url(#paint2_linear_1_2)"/>
<path d="M23.1298 7.27328L22.7684 6.40507C22.7515 6.36275 22.7223 6.32648 22.6846 6.30092C22.647 6.27537 22.6026 6.26172 22.5571 6.26172C22.5117 6.26172 22.4672 6.27537 22.4296 6.30092C22.3919 6.32648 22.3628 6.36275 22.3459 6.40507L21.9849 7.27328C21.9689 7.3123 21.9424 7.34611 21.9084 7.37095C21.8744 7.39579 21.8342 7.41068 21.7922 7.41398L20.857 7.49004C20.8116 7.49306 20.7682 7.50965 20.7323 7.53768C20.6964 7.56571 20.6697 7.60389 20.6556 7.64728C20.6416 7.69068 20.6409 7.7373 20.6535 7.78113C20.6661 7.82496 20.6916 7.86398 20.7266 7.89315L21.4384 8.5058C21.4706 8.53324 21.4945 8.56912 21.5075 8.60941C21.5205 8.64971 21.522 8.69284 21.512 8.73397L21.2954 9.64972C21.2844 9.69386 21.2867 9.7403 21.3022 9.78309C21.3176 9.82588 21.3455 9.86305 21.3822 9.88983C21.4189 9.91661 21.4627 9.93177 21.5081 9.93337C21.5534 9.93497 21.5982 9.92294 21.6367 9.89881L22.4399 9.40785C22.4758 9.38604 22.517 9.3745 22.559 9.3745C22.601 9.3745 22.6422 9.38604 22.6781 9.40785L23.4794 9.89767C23.5179 9.9218 23.5627 9.93384 23.608 9.93224C23.6534 9.93064 23.6972 9.91547 23.7339 9.88869C23.7706 9.86191 23.7985 9.82474 23.814 9.78195C23.8294 9.73916 23.8318 9.69272 23.8207 9.64858L23.6042 8.73284C23.5941 8.6917 23.5957 8.64857 23.6087 8.60827C23.6217 8.56798 23.6456 8.5321 23.6777 8.50466L24.388 7.89353C24.423 7.86436 24.4485 7.82534 24.4611 7.78151C24.4738 7.73768 24.473 7.69106 24.459 7.64766C24.4449 7.60427 24.4182 7.56609 24.3823 7.53806C24.3464 7.51003 24.303 7.49344 24.2576 7.49042L23.3224 7.41436C23.2804 7.41103 23.2402 7.39608 23.2062 7.37117C23.1722 7.34626 23.1457 7.31237 23.1298 7.27328Z" fill="url(#paint3_linear_1_2)"/>
<path d="M21.9919 14.0263C21.6611 14.022 21.332 14.0744 21.0188 14.1815V14.0263C21.0186 12.87 20.6035 11.7525 19.8492 10.8779C19.095 10.0033 18.052 9.43021 16.911 9.26331C15.7701 9.09642 14.6073 9.34691 13.6354 9.96897C12.6634 10.591 11.9472 11.5431 11.6177 12.6512C11.3421 12.5875 11.0597 12.5576 10.7769 12.5622C9.76909 12.5608 8.7996 12.9495 8.07051 13.6473C7.34143 14.345 6.90901 15.2981 6.86339 16.3077C6.81777 17.3173 7.16247 18.3056 7.82564 19.0667C8.4888 19.8277 9.41928 20.3028 10.4231 20.3928C10.4895 20.3928 10.5558 20.4148 10.6442 20.4148H22.169C22.3027 20.4111 22.4359 20.3962 22.5672 20.3703C23.3492 20.2254 24.049 19.7929 24.5294 19.1574C25.0099 18.5219 25.2363 17.7294 25.1643 16.9353C25.0922 16.1411 24.727 15.4025 24.1401 14.8644C23.5533 14.3263 22.7871 14.0274 21.9919 14.0263Z" fill="url(#paint4_linear_1_2)"/>
<defs>
<linearGradient id="paint0_linear_1_2" x1="6.63836" y1="-2.38745" x2="6.63836" y2="20.4004" gradientUnits="userSpaceOnUse">
<stop stop-color="#DDDDDD"/>
<stop offset="1" stop-color="#FCFCFC"/>
</linearGradient>
<linearGradient id="paint1_linear_1_2" x1="17.1403" y1="-2.38697" x2="17.1403" y2="20.4009" gradientUnits="userSpaceOnUse">
<stop stop-color="#DDDDDD"/>
<stop offset="1" stop-color="#FCFCFC"/>
</linearGradient>
<linearGradient id="paint2_linear_1_2" x1="22.1629" y1="-2.38746" x2="22.1629" y2="20.4004" gradientUnits="userSpaceOnUse">
<stop stop-color="#DDDDDD"/>
<stop offset="1" stop-color="#FCFCFC"/>
</linearGradient>
<linearGradient id="paint3_linear_1_2" x1="22.5571" y1="-2.38727" x2="22.5571" y2="20.4006" gradientUnits="userSpaceOnUse">
<stop stop-color="#DDDDDD"/>
<stop offset="1" stop-color="#FCFCFC"/>
</linearGradient>
<linearGradient id="paint4_linear_1_2" x1="16.0198" y1="-2.38748" x2="16.0198" y2="20.4004" gradientUnits="userSpaceOnUse">
<stop stop-color="#DDDDDD"/>
<stop offset="1" stop-color="#FCFCFC"/>
</linearGradient>
</defs>
</svg>
