<svg width="25" height="24" viewBox="0 0 25 24" fill="none" xmlns="http://www.w3.org/2000/svg">
<path d="M12.7191 16.8172C15.4019 16.8172 17.5768 14.6605 17.5768 12C17.5768 9.33958 15.4019 7.18286 12.7191 7.18286C10.0362 7.18286 7.86139 9.33958 7.86139 12C7.86139 14.6605 10.0362 16.8172 12.7191 16.8172Z" fill="url(#paint0_linear_1_541)"/>
<path d="M12.7187 5.36195C12.5538 5.36195 12.3905 5.32973 12.2381 5.26713C12.0858 5.20454 11.9473 5.11279 11.8307 4.99714C11.7141 4.88148 11.6217 4.74418 11.5586 4.59308C11.4955 4.44197 11.4631 4.28003 11.4631 4.11649V1.42783C11.4631 1.09751 11.5955 0.780726 11.831 0.547157C12.0665 0.313589 12.386 0.182373 12.7191 0.182373C13.0522 0.182373 13.3716 0.313589 13.6071 0.547157C13.8427 0.780726 13.975 1.09751 13.975 1.42783V4.11649C13.975 4.28008 13.9425 4.44206 13.8794 4.59319C13.8162 4.74432 13.7237 4.88164 13.607 4.9973C13.4903 5.11295 13.3518 5.20468 13.1994 5.26725C13.047 5.32982 12.8836 5.362 12.7187 5.36195Z" fill="url(#paint1_linear_1_541)"/>
<path d="M19.228 7.30747C19.1114 7.42308 18.973 7.51479 18.8206 7.57735C18.6683 7.63991 18.505 7.6721 18.3401 7.67208C18.1752 7.67206 18.0119 7.63984 17.8596 7.57725C17.7073 7.51465 17.5689 7.42292 17.4523 7.30728C17.3357 7.19164 17.2432 7.05437 17.1801 6.90329C17.117 6.75221 17.0846 6.59029 17.0846 6.42677C17.0846 6.26325 17.1171 6.10134 17.1802 5.95027C17.2433 5.79921 17.3358 5.66195 17.4525 5.54634L19.3699 3.64488C19.6054 3.41139 19.9248 3.28024 20.2578 3.28027C20.5909 3.28031 20.9102 3.41153 21.1457 3.64507C21.3811 3.87861 21.5134 4.19534 21.5133 4.52558C21.5133 4.85582 21.381 5.17252 21.1455 5.40601L19.228 7.30747Z" fill="url(#paint2_linear_1_541)"/>
<path d="M19.4125 11.9997C19.4126 11.8362 19.4451 11.6742 19.5083 11.5231C19.5715 11.372 19.664 11.2348 19.7807 11.1192C19.8973 11.0035 20.0358 10.9118 20.1882 10.8493C20.3406 10.7868 20.5039 10.7546 20.6689 10.7546H23.3801C23.7131 10.7546 24.0325 10.8858 24.2679 11.1193C24.5034 11.3528 24.6357 11.6695 24.6357 11.9997C24.6357 12.3299 24.5034 12.6466 24.2679 12.8801C24.0325 13.1136 23.7131 13.2448 23.3801 13.2448H20.6689C20.5039 13.2448 20.3406 13.2127 20.1882 13.1501C20.0358 13.0876 19.8973 12.9959 19.7807 12.8803C19.664 12.7647 19.5715 12.6274 19.5083 12.4763C19.4451 12.3252 19.4126 12.1633 19.4125 11.9997Z" fill="url(#paint3_linear_1_541)"/>
<path d="M19.228 16.6935L21.1455 18.595C21.2621 18.7106 21.3546 18.8479 21.4177 18.9989C21.4809 19.15 21.5133 19.3119 21.5134 19.4754C21.5134 19.6389 21.4809 19.8009 21.4178 19.9519C21.3547 20.103 21.2623 20.2403 21.1457 20.3559C21.0291 20.4716 20.8907 20.5633 20.7384 20.6259C20.586 20.6885 20.4227 20.7207 20.2578 20.7207C20.093 20.7207 19.9297 20.6886 19.7773 20.626C19.625 20.5634 19.4865 20.4717 19.3699 20.3561L17.4525 18.4547C17.22 18.2206 17.0902 17.9048 17.0915 17.5763C17.0928 17.2477 17.2249 16.9329 17.4592 16.7006C17.6935 16.4683 18.0109 16.3372 18.3422 16.3359C18.6736 16.3347 18.992 16.4634 19.228 16.6939V16.6935Z" fill="url(#paint4_linear_1_541)"/>
<path d="M12.7187 18.6379C12.8836 18.6379 13.0469 18.6701 13.1993 18.7326C13.3517 18.7951 13.4902 18.8868 13.6069 19.0025C13.7235 19.1181 13.8161 19.2553 13.8793 19.4064C13.9424 19.5575 13.975 19.7195 13.975 19.883V22.5717C13.975 22.902 13.8427 23.2188 13.6071 23.4523C13.3716 23.6859 13.0522 23.8171 12.7191 23.8171C12.386 23.8171 12.0665 23.6859 11.831 23.4523C11.5955 23.2188 11.4631 22.902 11.4631 22.5717V19.883C11.4632 19.5528 11.5956 19.2362 11.831 19.0027C12.0664 18.7692 12.3857 18.638 12.7187 18.6379Z" fill="url(#paint5_linear_1_541)"/>
<path d="M6.21005 16.6937C6.32664 16.578 6.46505 16.4863 6.61738 16.4237C6.76972 16.3611 6.93299 16.3289 7.09789 16.3289C7.26278 16.3288 7.42607 16.361 7.57842 16.4236C7.73076 16.4861 7.86919 16.5779 7.9858 16.6935C8.10241 16.8091 8.19492 16.9463 8.25804 17.0974C8.32116 17.2485 8.35366 17.4104 8.35367 17.5739C8.35369 17.7374 8.32123 17.8993 8.25814 18.0504C8.19506 18.2015 8.10258 18.3388 7.986 18.4544L6.06854 20.3559C5.95193 20.4715 5.8135 20.5632 5.66115 20.6257C5.5088 20.6883 5.34552 20.7205 5.18062 20.7205C5.01573 20.7205 4.85245 20.6882 4.70012 20.6256C4.54778 20.563 4.40937 20.4713 4.29279 20.3557C4.1762 20.24 4.08373 20.1028 4.02064 19.9517C3.95756 19.8006 3.92509 19.6387 3.92511 19.4752C3.92513 19.3116 3.95763 19.1497 4.02074 18.9987C4.08386 18.8476 4.17637 18.7103 4.29298 18.5947L6.21005 16.6937Z" fill="url(#paint6_linear_1_541)"/>
<path d="M2.05804 10.7546H4.7697C5.1027 10.7546 5.42205 10.8858 5.65751 11.1193C5.89297 11.3528 6.02525 11.6695 6.02525 11.9997C6.02525 12.3299 5.89297 12.6466 5.65751 12.8801C5.42205 13.1136 5.1027 13.2448 4.7697 13.2448H2.05804C1.72505 13.2448 1.40569 13.1136 1.17023 12.8801C0.934768 12.6466 0.80249 12.3299 0.80249 11.9997C0.80249 11.6695 0.934768 11.3528 1.17023 11.1193C1.40569 10.8858 1.72505 10.7546 2.05804 10.7546Z" fill="url(#paint7_linear_1_541)"/>
<path d="M7.09785 7.67157C6.93291 7.67175 6.76956 7.63958 6.61721 7.57693C6.46485 7.51427 6.32648 7.42237 6.21007 7.30649L4.29261 5.40504C4.176 5.28942 4.0835 5.15217 4.02038 5.0011C3.95726 4.85004 3.92476 4.68812 3.92474 4.5246C3.92473 4.36109 3.95719 4.19917 4.02027 4.04809C4.08336 3.89701 4.17584 3.75973 4.29242 3.6441C4.40901 3.52846 4.54742 3.43672 4.69975 3.37413C4.85209 3.31154 5.01536 3.27931 5.18026 3.2793C5.34515 3.27928 5.50844 3.31147 5.66079 3.37403C5.81313 3.43659 5.95156 3.52829 6.06817 3.6439L7.98563 5.54536C8.16112 5.71962 8.2806 5.94154 8.32897 6.18309C8.37734 6.42465 8.35243 6.675 8.25739 6.90252C8.16235 7.13005 8.00144 7.32453 7.79499 7.46141C7.58854 7.59829 7.34581 7.67143 7.09747 7.67157H7.09785Z" fill="url(#paint8_linear_1_541)"/>
<defs>
<linearGradient id="paint0_linear_1_541" x1="12.7191" y1="-1.66615" x2="12.7191" y2="24.623" gradientUnits="userSpaceOnUse">
<stop stop-color="#DDDDDD"/>
<stop offset="1" stop-color="#FCFCFC"/>
</linearGradient>
<linearGradient id="paint1_linear_1_541" x1="12.7191" y1="-1.66622" x2="12.7191" y2="24.623" gradientUnits="userSpaceOnUse">
<stop stop-color="#DDDDDD"/>
<stop offset="1" stop-color="#FCFCFC"/>
</linearGradient>
<linearGradient id="paint2_linear_1_541" x1="19.299" y1="-1.66627" x2="19.299" y2="24.6233" gradientUnits="userSpaceOnUse">
<stop stop-color="#DDDDDD"/>
<stop offset="1" stop-color="#FCFCFC"/>
</linearGradient>
<linearGradient id="paint3_linear_1_541" x1="22.0241" y1="-1.66607" x2="22.0241" y2="24.6235" gradientUnits="userSpaceOnUse">
<stop stop-color="#DDDDDD"/>
<stop offset="1" stop-color="#FCFCFC"/>
</linearGradient>
<linearGradient id="paint4_linear_1_541" x1="19.299" y1="-1.66619" x2="19.299" y2="24.6234" gradientUnits="userSpaceOnUse">
<stop stop-color="#DDDDDD"/>
<stop offset="1" stop-color="#FCFCFC"/>
</linearGradient>
<linearGradient id="paint5_linear_1_541" x1="12.7191" y1="-1.66622" x2="12.7191" y2="24.623" gradientUnits="userSpaceOnUse">
<stop stop-color="#DDDDDD"/>
<stop offset="1" stop-color="#FCFCFC"/>
</linearGradient>
<linearGradient id="paint6_linear_1_541" x1="6.13949" y1="-1.66607" x2="6.13949" y2="24.6235" gradientUnits="userSpaceOnUse">
<stop stop-color="#DDDDDD"/>
<stop offset="1" stop-color="#FCFCFC"/>
</linearGradient>
<linearGradient id="paint7_linear_1_541" x1="3.41368" y1="-1.66607" x2="3.41368" y2="24.6235" gradientUnits="userSpaceOnUse">
<stop stop-color="#DDDDDD"/>
<stop offset="1" stop-color="#FCFCFC"/>
</linearGradient>
<linearGradient id="paint8_linear_1_541" x1="6.1395" y1="-1.66611" x2="6.1395" y2="24.6235" gradientUnits="userSpaceOnUse">
<stop stop-color="#DDDDDD"/>
<stop offset="1" stop-color="#FCFCFC"/>
</linearGradient>
</defs>
</svg>
